<?xml version="1.0" encoding="utf-8"?>
<!-- Generator: Adobe Illustrator 25.0.1, SVG Export Plug-In . SVG Version: 6.00 Build 0)  -->
<svg version="1.1" xmlns="http://www.w3.org/2000/svg" xmlns:xlink="http://www.w3.org/1999/xlink" x="0px" y="0px"
	 viewBox="0 0 221 221" style="enable-background:new 0 0 221 221;" xml:space="preserve">
<style type="text/css">
	.st0{fill:#F7F7F7;}
	.st1{fill:#FFFFFF;}
	.st2{display:none;}
	.st3{display:inline;}
</style>
<g id="Capa_1">
	<g>
		<circle class="st0" cx="110.5" cy="110.5" r="109"/>
		<path class="st1" d="M110.5,3c28.7,0,55.7,11.2,76,31.5s31.5,47.3,31.5,76s-11.2,55.7-31.5,76s-47.3,31.5-76,31.5
			s-55.7-11.2-76-31.5S3,139.2,3,110.5s11.2-55.7,31.5-76S81.8,3,110.5,3 M110.5,0C49.5,0,0,49.5,0,110.5S49.5,221,110.5,221
			S221,171.5,221,110.5S171.5,0,110.5,0L110.5,0z"/>
	</g>
</g>
<g id="Capa_2" class="st2">
	<g class="st3">
		<g>
			<path class="st1" d="M-24.6,158.4h2.7c1.3-9.1,9-16.1,18.4-16.1c2.6,0,5.1,0.6,7.4,1.5c2.8-12.4,13.8-21.7,27-21.7
				c11.2,0,20.9,6.7,25.2,16.2c1.3-0.3,2.6-0.5,4-0.5c9,0,16.2,7.3,16.2,16.2c0,2.5-0.6,4.8-1.6,6.9c4.6,3,7.7,8.2,7.7,14.1
				c0,9.3-7.5,16.8-16.8,16.8h-90.3c-9.3,0-16.8-7.5-16.8-16.8C-41.4,166-33.9,158.4-24.6,158.4z"/>
		</g>
		<path class="st1" d="M230.3,36.8c0.9-2.1,1.4-4.4,1.4-6.8c0-9.4-7.6-17.1-17.1-17.1c-4.9,0-9.4,2.1-12.5,5.5
			c-4-5.2-10.3-8.5-17.4-8.5c-12.2,0-22,9.8-22,22c0,1.7,0.2,3.3,0.5,4.8h0c0,0,0,0.1,0,0.1c0.2,0.7,0.3,1.3,0.6,2
			c-3.4,2.3-5.6,6.1-5.6,10.5c0,6.9,5.6,12.6,12.6,12.6h58.6c6.9,0,12.6-5.6,12.6-12.6C242,42.6,236.8,37.2,230.3,36.8z"/>
	</g>
</g>
</svg>
