<?xml version="1.0" encoding="utf-8"?>
<!-- Generator: Adobe Illustrator 25.0.1, SVG Export Plug-In . SVG Version: 6.00 Build 0)  -->
<svg version="1.1" id="Capa_1" xmlns="http://www.w3.org/2000/svg" xmlns:xlink="http://www.w3.org/1999/xlink" x="0px" y="0px"
	 viewBox="0 0 200 200" style="enable-background:new 0 0 200 200;" xml:space="preserve">
<style type="text/css">
	.st0{fill:#FFFFFF;}
</style>
<g>
	<g>
		<path class="st0" d="M100,147.9c-26.4,0-47.9-21.5-47.9-47.9S73.6,52.1,100,52.1s47.9,21.5,47.9,47.9S126.4,147.9,100,147.9z
			 M100,56.1c-24.2,0-43.9,19.7-43.9,43.9c0,24.2,19.7,43.9,43.9,43.9s43.9-19.7,43.9-43.9C143.9,75.8,124.2,56.1,100,56.1z"/>
	</g>
	<g>
		<g>
			<g>
				<rect x="98" y="18.5" class="st0" width="4" height="28.9"/>
			</g>
			<g>
				<rect x="39.9" y="52" transform="matrix(0.5 -0.866 0.866 0.5 -36.6024 69.5663)" class="st0" width="4" height="28.9"/>
			</g>
			<g>
				
					<rect x="27.5" y="131.5" transform="matrix(0.8661 -0.4999 0.4999 0.8661 -61.1307 38.8509)" class="st0" width="28.9" height="4"/>
			</g>
			<g>
				<rect x="98" y="152.6" class="st0" width="4" height="28.9"/>
			</g>
			<g>
				<rect x="156.1" y="119.1" transform="matrix(0.5 -0.866 0.866 0.5 -36.6034 203.6363)" class="st0" width="4" height="28.9"/>
			</g>
			<g>
				<rect x="143.6" y="64.5" transform="matrix(0.866 -0.5 0.5 0.866 -12.0648 87.9394)" class="st0" width="28.9" height="4"/>
			</g>
		</g>
		<g>
			<g>
				<rect x="68.6" y="36.5" transform="matrix(0.866 -0.5 0.5 0.866 -15.1098 41.9049)" class="st0" width="4" height="25.3"/>
			</g>
			<g>
				<rect x="28.6" y="98" class="st0" width="25.3" height="4"/>
			</g>
			<g>
				<rect x="58" y="148.9" transform="matrix(0.5 -0.866 0.866 0.5 -95.3215 136.5978)" class="st0" width="25.3" height="4"/>
			</g>
			<g>
				<rect x="127.4" y="138.2" transform="matrix(0.866 -0.5 0.5 0.866 -58.0948 84.8887)" class="st0" width="4" height="25.3"/>
			</g>
			<g>
				<rect x="146.1" y="98" class="st0" width="25.3" height="4"/>
			</g>
			<g>
				<rect x="116.7" y="47.1" transform="matrix(0.5 -0.866 0.866 0.5 22.1141 136.5994)" class="st0" width="25.3" height="4"/>
			</g>
		</g>
	</g>
</g>
</svg>
