<?xml version="1.0" encoding="utf-8"?>
<!-- Generator: Adobe Illustrator 25.0.1, SVG Export Plug-In . SVG Version: 6.00 Build 0)  -->
<svg version="1.1" id="Capa_1" xmlns="http://www.w3.org/2000/svg" xmlns:xlink="http://www.w3.org/1999/xlink" x="0px" y="0px"
	 viewBox="0 0 200 200" style="enable-background:new 0 0 200 200;" xml:space="preserve">
<style type="text/css">
	.st0{fill:#FFFFFF;}
</style>
<g>
	<g>
		<path class="st0" d="M34.3,127.7c-7.9-2.2-13.5-9.5-13.5-17.8c0-5.7,2.6-11,7.1-14.5c-0.7-2-1.1-4-1.1-6.1c0-9.9,8-17.9,17.9-17.9
			c0.9,0,1.9,0.1,2.8,0.2c5-9.5,15-15.6,25.8-15.6c9.9,0,19,5,24.4,13.3l-3.4,2.2c-4.7-7.2-12.5-11.4-21.1-11.4
			c-9.8,0-18.8,5.8-22.9,14.7c-0.4,0.9-1.4,1.3-2.3,1.1c-1.2-0.3-2.3-0.5-3.4-0.5c-7.7,0-13.9,6.2-13.9,13.9c0,2,0.5,4,1.3,5.9
			c0.4,0.9,0.1,2-0.7,2.5c-4.1,2.7-6.6,7.2-6.6,12.1c0,6.5,4.3,12.2,10.5,13.9L34.3,127.7z"/>
	</g>
	<g>
		<path class="st0" d="M157.8,143.9H54.2c-11.7,0-21.3-9.6-21.3-21.3s9.6-21.3,21.3-21.3h1.4c2.3-10.6,11.8-18.4,22.8-18.4
			c2.4,0,4.8,0.4,7.1,1.1c4.2-14.2,17.5-24.2,32.4-24.2c12.7,0,24.3,7.2,30,18.4c1.2-0.2,2.4-0.3,3.5-0.3c11.4,0,20.6,9.2,20.6,20.6
			c0,2.5-0.4,4.9-1.3,7.2c5.3,4,8.4,10.2,8.4,16.9C179.1,134.4,169.6,143.9,157.8,143.9z M54.2,105.3c-9.5,0-17.3,7.8-17.3,17.3
			c0,9.5,7.8,17.3,17.3,17.3h103.6c9.5,0,17.3-7.8,17.3-17.3c0-5.9-3-11.3-7.9-14.5c-0.8-0.5-1.2-1.6-0.7-2.5
			c1.1-2.3,1.6-4.6,1.6-7.1c0-9.2-7.5-16.6-16.6-16.6c-1.3,0-2.7,0.2-4.1,0.5c-0.9,0.2-1.9-0.2-2.3-1.1
			c-4.8-10.6-15.5-17.5-27.1-17.5c-13.8,0-26.1,9.8-29.1,23.3c-0.1,0.6-0.5,1.1-1,1.3c-0.5,0.3-1.2,0.3-1.7,0.1
			c-2.4-1.1-5-1.6-7.7-1.6c-9.6,0-17.8,7.2-19.2,16.7c-0.1,1-1,1.7-2,1.7H54.2z"/>
	</g>
</g>
</svg>
