<?xml version="1.0" encoding="utf-8"?>
<!-- Generator: Adobe Illustrator 25.0.1, SVG Export Plug-In . SVG Version: 6.00 Build 0)  -->
<svg version="1.1" id="Capa_1" xmlns="http://www.w3.org/2000/svg" xmlns:xlink="http://www.w3.org/1999/xlink" x="0px" y="0px"
	 viewBox="0 0 200 200" style="enable-background:new 0 0 200 200;" xml:space="preserve">
<style type="text/css">
	.st0{fill:#FFFFFF;}
</style>
<g>
	<g>
		<g>
			<path class="st0" d="M52.3,128c-9.3-7.2-14.6-18-14.6-29.7c0-20.7,16.8-37.5,37.5-37.5c16,0,30.3,10.2,35.5,25.4l-3.8,1.3
				C102.2,74,89.5,64.9,75.2,64.9c-18.4,0-33.5,15-33.5,33.5c0,10.4,4.7,20.1,13,26.5L52.3,128z"/>
		</g>
		<g>
			<g>
				<g>
					<rect x="73.2" y="35.3" class="st0" width="4" height="22.3"/>
				</g>
				<g>
					<rect x="28.3" y="61.3" transform="matrix(0.5 -0.866 0.866 0.5 -47.5696 62.4459)" class="st0" width="4" height="22.3"/>
				</g>
				<g>
					
						<rect x="19.1" y="122.2" transform="matrix(0.8661 -0.4999 0.4999 0.8661 -58.0565 31.7853)" class="st0" width="22.3" height="4"/>
				</g>
				<g>
					<rect x="108.9" y="70.4" transform="matrix(0.866 -0.5 0.5 0.866 -20.1242 69.7387)" class="st0" width="22.3" height="4"/>
				</g>
			</g>
			<g>
				<g>
					<rect x="50.5" y="49.2" transform="matrix(0.866 -0.5 0.5 0.866 -22.4777 34.1466)" class="st0" width="4" height="19.6"/>
				</g>
				<g>
					<rect x="20" y="96.3" class="st0" width="19.6" height="4"/>
				</g>
				<g>
					
						<rect x="88.1" y="57" transform="matrix(0.4999 -0.8661 0.8661 0.4999 -2.1664 114.2838)" class="st0" width="19.6" height="4"/>
				</g>
			</g>
		</g>
	</g>
	<g>
		<path class="st0" d="M160.7,166.7H57.1c-11.7,0-21.3-9.6-21.3-21.3s9.6-21.3,21.3-21.3h1.4c2.3-10.6,11.8-18.4,22.8-18.4
			c2.4,0,4.8,0.4,7.1,1.1c4.2-14.2,17.5-24.2,32.4-24.2c12.7,0,24.3,7.2,30,18.4c1.2-0.2,2.4-0.3,3.5-0.3c11.4,0,20.6,9.2,20.6,20.6
			c0,2.5-0.4,4.9-1.3,7.2c5.3,4,8.4,10.2,8.4,16.9C182,157.1,172.4,166.7,160.7,166.7z M57.1,128.1c-9.5,0-17.3,7.8-17.3,17.3
			s7.8,17.3,17.3,17.3h103.6c9.5,0,17.3-7.8,17.3-17.3c0-5.9-3-11.3-7.9-14.5c-0.8-0.5-1.2-1.6-0.7-2.5c1.1-2.3,1.6-4.6,1.6-7.1
			c0-9.2-7.5-16.6-16.6-16.6c-1.3,0-2.7,0.2-4.1,0.5c-0.9,0.2-1.9-0.2-2.3-1.1c-4.8-10.6-15.5-17.5-27.1-17.5
			c-13.8,0-26.1,9.8-29.1,23.3c-0.1,0.6-0.5,1.1-1,1.3c-0.5,0.3-1.2,0.3-1.7,0.1c-2.4-1.1-5-1.6-7.7-1.6c-9.6,0-17.8,7.2-19.2,16.7
			c-0.1,1-1,1.7-2,1.7H57.1z"/>
	</g>
</g>
</svg>
