<?xml version="1.0" encoding="utf-8"?>
<!-- Generator: Adobe Illustrator 25.0.1, SVG Export Plug-In . SVG Version: 6.00 Build 0)  -->
<svg version="1.1" id="Capa_1" xmlns="http://www.w3.org/2000/svg" xmlns:xlink="http://www.w3.org/1999/xlink" x="0px" y="0px"
	 viewBox="0 0 200 200" style="enable-background:new 0 0 200 200;" xml:space="preserve">
<style type="text/css">
	.st0{fill:#FFFFFF;}
</style>
<g>
	<g>
		<path class="st0" d="M151.8,131.7h-38.1v-4h38.1c9.5,0,17.3-7.8,17.3-17.3c0-5.9-3-11.3-7.9-14.5c-0.8-0.5-1.2-1.6-0.7-2.5
			c1.1-2.3,1.6-4.6,1.6-7.1c0-9.2-7.5-16.6-16.6-16.6c-1.3,0-2.7,0.2-4.1,0.5c-0.9,0.2-1.9-0.2-2.3-1.1
			c-4.8-10.6-15.5-17.5-27.1-17.5c-13.8,0-26.1,9.8-29.1,23.3c-0.1,0.6-0.5,1.1-1,1.3c-0.5,0.3-1.2,0.3-1.7,0.1
			c-2.4-1.1-5-1.6-7.7-1.6c-9.6,0-17.8,7.2-19.2,16.7c-0.1,1-1,1.7-2,1.7h-3c-9.5,0-17.3,7.8-17.3,17.3c0,9.5,7.8,17.3,17.3,17.3
			h17.5v4H48.2c-11.7,0-21.3-9.6-21.3-21.3c0-11.7,9.6-21.3,21.3-21.3h1.4c2.3-10.6,11.8-18.4,22.8-18.4c2.4,0,4.8,0.4,7.1,1.1
			c4.2-14.2,17.5-24.2,32.4-24.2c12.7,0,24.3,7.2,30,18.4c1.2-0.2,2.4-0.3,3.5-0.3c11.4,0,20.6,9.2,20.6,20.6c0,2.5-0.4,4.9-1.3,7.2
			c5.3,4,8.4,10.2,8.4,16.9C173.1,122.1,163.6,131.7,151.8,131.7z"/>
	</g>
	<g>
		<path class="st0" d="M120.3,114.7c-3.9,0-7.3-2-9.1-5.4c-1.9-3.4-1.8-7.3,0.3-10.6l7.2-11.4c0.4-0.6,1-0.9,1.7-0.9l0,0
			c0.7,0,1.3,0.4,1.7,0.9l7.2,11.4c2,3.3,2.2,7.2,0.3,10.6C127.6,112.6,124.1,114.7,120.3,114.7z M120.3,92.1l-5.5,8.7
			c-1.3,2-1.3,4.5-0.2,6.5c1.2,2.1,3.3,3.3,5.6,3.3s4.5-1.2,5.6-3.3c1.2-2.1,1.1-4.5-0.2-6.5L120.3,92.1z"/>
	</g>
	<g>
		<path class="st0" d="M89,152.4c-6,0-11.4-3.2-14.3-8.4c-2.9-5.3-2.8-11.5,0.4-16.6l12.2-19.5c0.4-0.6,1-0.9,1.7-0.9
			s1.3,0.4,1.7,0.9l12.2,19.5l0,0c3.2,5.1,3.4,11.3,0.4,16.6C100.4,149.3,95,152.4,89,152.4z M89,112.7l-10.5,16.8
			c-2.4,3.9-2.6,8.6-0.3,12.6c2.2,4,6.3,6.4,10.8,6.4s8.6-2.4,10.8-6.4c2.2-4,2.1-8.7-0.3-12.6L89,112.7z"/>
	</g>
</g>
</svg>
