<?xml version="1.0" encoding="utf-8"?>
<!-- Generator: Adobe Illustrator 25.0.1, SVG Export Plug-In . SVG Version: 6.00 Build 0)  -->
<svg version="1.1" id="Capa_1" xmlns="http://www.w3.org/2000/svg" xmlns:xlink="http://www.w3.org/1999/xlink" x="0px" y="0px"
	 viewBox="0 0 200 200" style="enable-background:new 0 0 200 200;" xml:space="preserve">
<style type="text/css">
	.st0{fill:#FFFFFF;}
</style>
<g>
	<g>
		<path class="st0" d="M100,165.1c-35.9,0-65.1-29.2-65.1-65.1c0-35.9,29.2-65.1,65.1-65.1s65.1,29.2,65.1,65.1
			C165.1,135.9,135.9,165.1,100,165.1z M100,39.1c-33.6,0-60.9,27.3-60.9,60.9s27.3,60.9,60.9,60.9s60.9-27.3,60.9-60.9
			S133.6,39.1,100,39.1z"/>
	</g>
	<g>
		<rect x="97.9" y="61.1" transform="matrix(0.7071 -0.7071 0.7071 0.7071 -41.4214 100)" class="st0" width="4.1" height="77.7"/>
	</g>
	<g>
		<rect x="61.1" y="97.9" transform="matrix(0.7071 -0.7071 0.7071 0.7071 -41.4214 100)" class="st0" width="77.7" height="4.1"/>
	</g>
</g>
</svg>
