<?xml version="1.0" encoding="utf-8"?>
<!-- Generator: Adobe Illustrator 25.0.1, SVG Export Plug-In . SVG Version: 6.00 Build 0)  -->
<svg version="1.1" id="Capa_1" xmlns="http://www.w3.org/2000/svg" xmlns:xlink="http://www.w3.org/1999/xlink" x="0px" y="0px"
	 viewBox="0 0 200 200" style="enable-background:new 0 0 200 200;" xml:space="preserve">
<style type="text/css">
	.st0{fill:#FFFFFF;}
</style>
<g>
	<g>
		<path class="st0" d="M100,113.5c-13.6,0-24.7-11.1-24.7-24.7S86.4,64.1,100,64.1s24.7,11.1,24.7,24.7S113.6,113.5,100,113.5z
			 M100,68.6c-11.1,0-20.2,9.1-20.2,20.2S88.9,109,100,109s20.2-9.1,20.2-20.2S111.1,68.6,100,68.6z"/>
	</g>
	<g>
		<path class="st0" d="M100,167.7c-0.6,0-1.2-0.2-1.6-0.7l-38.4-38.4C49.4,118,43.5,103.9,43.5,88.8c0-15.1,5.9-29.3,16.5-39.9
			C70.7,38.1,84.9,32.3,100,32.3s29.3,5.9,39.9,16.5c10.7,10.7,16.5,24.9,16.5,39.9c0,15.1-5.9,29.3-16.5,39.9l-38.4,38.4
			C101.2,167.5,100.6,167.7,100,167.7z M100,36.8c-13.3,0-26.6,5.1-36.8,15.2C53.4,61.8,48,74.9,48,88.8c0,13.9,5.4,26.9,15.2,36.8
			l36.8,36.8l36.8-36.8c9.8-9.8,15.2-22.9,15.2-36.8c0-13.9-5.4-26.9-15.2-36.8C126.6,41.9,113.3,36.8,100,36.8z"/>
	</g>
</g>
</svg>
