<?xml version="1.0" encoding="utf-8"?>
<!-- Generator: Adobe Illustrator 25.0.1, SVG Export Plug-In . SVG Version: 6.00 Build 0)  -->
<svg version="1.1" id="Capa_1" xmlns="http://www.w3.org/2000/svg" xmlns:xlink="http://www.w3.org/1999/xlink" x="0px" y="0px"
	 viewBox="0 0 200 200" style="enable-background:new 0 0 200 200;" xml:space="preserve">
<style type="text/css">
	.st0{fill:#FFFFFF;}
</style>
<g>
	<g>
		<path class="st0" d="M168.4,131.7h-48.8v-4h48.8c9.5,0,17.3-7.8,17.3-17.3c0-5.9-3-11.3-7.9-14.5c-0.8-0.5-1.2-1.6-0.7-2.5
			c1.1-2.3,1.6-4.6,1.6-7.1c0-9.2-7.5-16.6-16.6-16.6c-1.3,0-2.7,0.2-4.1,0.5c-0.9,0.2-1.9-0.2-2.3-1.1
			c-4.8-10.6-15.5-17.5-27.1-17.5c-13.8,0-26.1,9.8-29.1,23.3c-0.1,0.6-0.5,1.1-1,1.3c-0.5,0.3-1.2,0.3-1.7,0.1
			c-2.4-1.1-5-1.6-7.7-1.6c-9.6,0-17.8,7.2-19.2,16.7c-0.1,1-1,1.7-2,1.7h-3c-2.5,0-4.9,0.5-7.1,1.5L56,91c2.8-1.2,5.7-1.9,8.7-1.9
			h1.4c2.3-10.6,11.8-18.4,22.8-18.4c2.4,0,4.8,0.4,7.1,1.1c4.2-14.2,17.5-24.2,32.4-24.2c12.7,0,24.3,7.2,30,18.4
			c1.2-0.2,2.4-0.3,3.5-0.3c11.4,0,20.6,9.2,20.6,20.6c0,2.5-0.4,4.9-1.3,7.2c5.3,4,8.4,10.2,8.4,16.9
			C189.7,122.1,180.1,131.7,168.4,131.7z"/>
	</g>
	<g>
		<g>
			<path class="st0" d="M108.7,102.9H44c-7.8,0-14.1-6.3-14.1-14.1S36.2,74.7,44,74.7v4c-5.6,0-10.1,4.5-10.1,10.1
				S38.4,98.9,44,98.9h64.8V102.9z"/>
		</g>
		<g>
			<path class="st0" d="M53.3,152.4c-6.8,0-12.4-5.5-12.4-12.4c0-6.8,5.5-12.4,12.4-12.4h55.4v4H53.3c-4.6,0-8.4,3.7-8.4,8.4
				c0,4.6,3.7,8.4,8.4,8.4V152.4z"/>
		</g>
		<g>
			<rect x="12.3" y="108.7" class="st0" width="77.2" height="4"/>
		</g>
		<g>
			<rect x="100.9" y="108.7" class="st0" width="7.8" height="4"/>
		</g>
		<g>
			<rect x="56.8" y="118.4" class="st0" width="5.2" height="4"/>
		</g>
		<g>
			<rect x="70.3" y="118.4" class="st0" width="38.4" height="4"/>
		</g>
	</g>
</g>
</svg>
