<?xml version="1.0" encoding="utf-8"?>
<!-- Generator: Adobe Illustrator 25.0.1, SVG Export Plug-In . SVG Version: 6.00 Build 0)  -->
<svg version="1.1" xmlns="http://www.w3.org/2000/svg" xmlns:xlink="http://www.w3.org/1999/xlink" x="0px" y="0px"
	 viewBox="0 0 283.4 182.2" style="enable-background:new 0 0 283.4 182.2;" xml:space="preserve">
<style type="text/css">
	.st0{display:none;}
	.st1{display:inline;}
	.st2{fill:#F7F7F7;}
	.st3{fill:#FFFFFF;}
</style>
<g id="Capa_1" class="st0">
	<g class="st1">
		<circle class="st2" cx="151.9" cy="100.6" r="109"/>
		<path class="st3" d="M151.9-6.9c28.7,0,55.7,11.2,76,31.5s31.5,47.3,31.5,76s-11.2,55.7-31.5,76s-47.3,31.5-76,31.5
			s-55.7-11.2-76-31.5s-31.5-47.3-31.5-76s11.2-55.7,31.5-76S123.2-6.9,151.9-6.9 M151.9-9.9c-61,0-110.5,49.5-110.5,110.5
			s49.5,110.5,110.5,110.5s110.5-49.5,110.5-110.5S212.9-9.9,151.9-9.9L151.9-9.9z"/>
	</g>
</g>
<g id="Capa_2">
	<g>
		<g>
			<path class="st3" d="M16.8,148.5h2.7c1.3-9.1,9-16.1,18.4-16.1c2.6,0,5.1,0.6,7.4,1.5c2.8-12.4,13.8-21.7,27-21.7
				c11.2,0,20.9,6.7,25.2,16.2c1.3-0.3,2.6-0.5,4-0.5c9,0,16.2,7.3,16.2,16.2c0,2.5-0.6,4.8-1.6,6.9c4.6,3,7.7,8.2,7.7,14.1
				c0,9.3-7.5,16.8-16.8,16.8H16.8c-9.3,0-16.8-7.5-16.8-16.8C0,156.1,7.5,148.5,16.8,148.5z"/>
		</g>
		<path class="st3" d="M271.7,26.9c0.9-2.1,1.4-4.4,1.4-6.8c0-9.4-7.6-17.1-17.1-17.1c-4.9,0-9.4,2.1-12.5,5.5
			c-4-5.2-10.3-8.5-17.4-8.5c-12.2,0-22,9.8-22,22c0,1.7,0.2,3.3,0.5,4.8h0c0,0,0,0.1,0,0.1c0.2,0.7,0.3,1.3,0.6,2
			c-3.4,2.3-5.6,6.1-5.6,10.5c0,6.9,5.6,12.6,12.6,12.6h58.6c6.9,0,12.6-5.6,12.6-12.6C283.4,32.7,278.2,27.3,271.7,26.9z"/>
	</g>
</g>
</svg>
