<?xml version="1.0" encoding="utf-8"?>
<!-- Generator: Adobe Illustrator 25.0.1, SVG Export Plug-In . SVG Version: 6.00 Build 0)  -->
<svg version="1.1" id="Capa_1" xmlns="http://www.w3.org/2000/svg" xmlns:xlink="http://www.w3.org/1999/xlink" x="0px" y="0px"
	 viewBox="0 0 200 200" style="enable-background:new 0 0 200 200;" xml:space="preserve">
<style type="text/css">
	.st0{fill:#FFFFFF;}
</style>
<g>
	<g>
		<g>
			<path class="st0" d="M42.7,100.4c-8.1-2.1-13.8-9.5-13.8-17.9c0-5.7,2.6-11,7.1-14.5c-0.7-2-1.1-4-1.1-6.1
				c0-9.9,8-17.9,17.9-17.9c0.9,0,1.9,0.1,2.8,0.2c5-9.5,15-15.6,25.8-15.6c9.9,0,19,5,24.4,13.3l-3.4,2.2
				C97.8,37,90,32.7,81.4,32.7c-9.8,0-18.8,5.8-22.9,14.7c-0.4,0.9-1.4,1.3-2.3,1.1c-1.2-0.3-2.3-0.5-3.4-0.5
				c-7.7,0-13.9,6.2-13.9,13.9c0,2,0.5,4,1.3,5.9c0.4,0.9,0.1,2-0.7,2.5c-4.1,2.7-6.6,7.2-6.6,12.1c0,6.6,4.4,12.3,10.8,14
				L42.7,100.4z"/>
		</g>
		<g>
			<path class="st0" d="M165.9,116.5H62.2c-11.7,0-21.3-9.6-21.3-21.3c0-11.7,9.6-21.3,21.3-21.3h1.4c2.3-10.6,11.8-18.4,22.8-18.4
				c2.4,0,4.8,0.4,7.1,1.1c4.2-14.2,17.5-24.2,32.4-24.2c12.7,0,24.3,7.2,30,18.4c1.2-0.2,2.4-0.3,3.5-0.3
				c11.4,0,20.6,9.2,20.6,20.6c0,2.5-0.4,4.9-1.3,7.2c5.3,4,8.4,10.2,8.4,16.9C187.1,106.9,177.6,116.5,165.9,116.5z M62.2,77.9
				c-9.5,0-17.3,7.8-17.3,17.3c0,9.5,7.8,17.3,17.3,17.3h103.6c9.5,0,17.3-7.8,17.3-17.3c0-5.9-3-11.3-7.9-14.5
				c-0.8-0.5-1.1-1.6-0.7-2.5c1.1-2.3,1.6-4.6,1.6-7.1c0-9.2-7.5-16.6-16.6-16.6c-1.3,0-2.7,0.2-4.1,0.5c-0.9,0.2-1.9-0.2-2.3-1.1
				c-4.8-10.6-15.5-17.5-27.1-17.5c-13.8,0-26.1,9.8-29.1,23.3c-0.1,0.6-0.5,1.1-1,1.3c-0.5,0.3-1.2,0.3-1.7,0.1
				c-2.4-1.1-5-1.6-7.7-1.6c-9.6,0-17.8,7.2-19.2,16.7c-0.1,1-1,1.7-2,1.7H62.2z"/>
		</g>
	</g>
	<g>
		<g>
			<g>
				
					<rect x="55.5" y="129.1" transform="matrix(0.3977 -0.9175 0.9175 0.3977 -81.8477 137.5475)" class="st0" width="16.7" height="4"/>
			</g>
			<g>
				
					<rect x="88.5" y="129.1" transform="matrix(0.3977 -0.9175 0.9175 0.3977 -61.9626 167.84)" class="st0" width="16.7" height="4"/>
			</g>
			<g>
				
					<rect x="121.6" y="129.1" transform="matrix(0.3977 -0.9175 0.9175 0.3977 -42.0777 198.1324)" class="st0" width="16.7" height="4"/>
			</g>
			<g>
				
					<rect x="154.6" y="129.1" transform="matrix(0.3977 -0.9175 0.9175 0.3977 -22.1927 228.4249)" class="st0" width="16.7" height="4"/>
			</g>
		</g>
		<g>
			<g>
				
					<rect x="34.5" y="146" transform="matrix(0.3977 -0.9175 0.9175 0.3977 -110.0187 128.4691)" class="st0" width="16.7" height="4"/>
			</g>
			<g>
				
					<rect x="23.1" y="129.1" transform="matrix(0.3977 -0.9175 0.9175 0.3977 -101.3528 107.8337)" class="st0" width="16.7" height="4"/>
			</g>
			<g>
				
					<rect x="67.5" y="146" transform="matrix(0.3977 -0.9175 0.9175 0.3977 -90.1338 158.7614)" class="st0" width="16.7" height="4"/>
			</g>
			<g>
				
					<rect x="100.6" y="146" transform="matrix(0.3977 -0.9175 0.9175 0.3977 -70.2488 189.0539)" class="st0" width="16.7" height="4"/>
			</g>
			<g>
				
					<rect x="133.6" y="146" transform="matrix(0.3977 -0.9175 0.9175 0.3977 -50.3639 219.3463)" class="st0" width="16.7" height="4"/>
			</g>
		</g>
	</g>
</g>
</svg>
