<?xml version="1.0" encoding="utf-8"?>
<!-- Generator: Adobe Illustrator 25.0.1, SVG Export Plug-In . SVG Version: 6.00 Build 0)  -->
<svg version="1.1" id="Capa_1" xmlns="http://www.w3.org/2000/svg" xmlns:xlink="http://www.w3.org/1999/xlink" x="0px" y="0px"
	 viewBox="0 0 200 200" style="enable-background:new 0 0 200 200;" xml:space="preserve">
<style type="text/css">
	.st0{fill:#FFFFFF;}
</style>
<g>
	<g>
		<path class="st0" d="M151.8,119.9h-10.7v-4h10.7c9.5,0,17.3-7.8,17.3-17.3c0-5.9-3-11.3-7.9-14.5c-0.8-0.5-1.1-1.6-0.7-2.5
			c1.1-2.3,1.6-4.6,1.6-7.1c0-9.2-7.5-16.6-16.6-16.6c-1.3,0-2.7,0.2-4.1,0.5c-0.9,0.2-1.9-0.2-2.3-1.1
			c-4.8-10.6-15.5-17.5-27.1-17.5c-13.8,0-26.1,9.8-29.1,23.3c-0.1,0.6-0.5,1.1-1,1.3c-0.5,0.3-1.2,0.3-1.7,0.1
			c-2.4-1.1-5-1.6-7.7-1.6c-9.6,0-17.8,7.2-19.2,16.7c-0.1,1-1,1.7-2,1.7h-3c-9.5,0-17.3,7.8-17.3,17.3c0,9.5,7.8,17.3,17.3,17.3
			h47.1v4H48.2c-11.7,0-21.3-9.6-21.3-21.3s9.6-21.3,21.3-21.3h1.4c2.3-10.6,11.8-18.4,22.8-18.4c2.4,0,4.8,0.4,7.1,1.1
			c4.2-14.2,17.5-24.2,32.4-24.2c12.7,0,24.3,7.2,30,18.4c1.2-0.2,2.4-0.3,3.5-0.3c11.4,0,20.6,9.2,20.6,20.6c0,2.5-0.4,4.9-1.3,7.2
			c5.3,4,8.4,10.2,8.4,16.9C173.1,110.3,163.6,119.9,151.8,119.9z"/>
	</g>
	<g>
		<g>
			<rect x="116.9" y="107" class="st0" width="4" height="21.7"/>
		</g>
		<g>
			<rect x="116.6" y="107.2" transform="matrix(0.5 -0.866 0.866 0.5 -42.8765 161.726)" class="st0" width="4" height="21.7"/>
		</g>
		<g>
			
				<rect x="107.8" y="116.3" transform="matrix(0.8661 -0.4999 0.4999 0.8661 -43.2445 75.1439)" class="st0" width="21.7" height="4"/>
		</g>
	</g>
	<g>
		<g>
			<rect x="76.3" y="125.5" class="st0" width="4" height="21.7"/>
		</g>
		<g>
			<rect x="76.1" y="125.6" transform="matrix(0.5 -0.866 0.866 0.5 -79.1272 135.8652)" class="st0" width="4" height="21.7"/>
		</g>
		<g>
			
				<rect x="67.3" y="134.7" transform="matrix(0.8661 -0.4999 0.4999 0.8661 -57.9015 57.356)" class="st0" width="21.7" height="4"/>
		</g>
	</g>
	<g>
		<g>
			<rect x="109.9" y="145.1" class="st0" width="4" height="17.1"/>
		</g>
		<g>
			<rect x="109.7" y="145.2" transform="matrix(0.5 -0.866 0.866 0.5 -77.3398 173.6208)" class="st0" width="4" height="17.1"/>
		</g>
		<g>
			
				<rect x="103.1" y="152" transform="matrix(0.8661 -0.4999 0.4999 0.8661 -62.0378 76.468)" class="st0" width="17.1" height="4"/>
		</g>
	</g>
</g>
</svg>
