<?xml version="1.0" encoding="utf-8"?>
<!-- Generator: Adobe Illustrator 25.0.1, SVG Export Plug-In . SVG Version: 6.00 Build 0)  -->
<svg version="1.1" id="Capa_1" xmlns="http://www.w3.org/2000/svg" xmlns:xlink="http://www.w3.org/1999/xlink" x="0px" y="0px"
	 viewBox="0 0 200 200" style="enable-background:new 0 0 200 200;" xml:space="preserve">
<style type="text/css">
	.st0{fill:#FFFFFF;}
</style>
<g>
	<g>
		<g>
			<path class="st0" d="M152.2,124.1h-20.8v-4h20.8c9.5,0,17.3-7.8,17.3-17.3c0-5.9-3-11.3-7.9-14.5c-0.8-0.5-1.2-1.6-0.7-2.5
				c1.1-2.3,1.6-4.6,1.6-7.1c0-9.2-7.5-16.6-16.6-16.6c-1.3,0-2.7,0.2-4.1,0.5c-0.9,0.2-1.9-0.2-2.3-1.1C134.6,50.9,124,44,112.3,44
				c-13.8,0-26.1,9.8-29.1,23.3c-0.1,0.6-0.5,1.1-1,1.3c-0.5,0.3-1.2,0.3-1.7,0.1c-2.4-1.1-5-1.6-7.7-1.6c-9.6,0-17.8,7.2-19.2,16.7
				c-0.1,1-1,1.7-2,1.7h-3c-9.5,0-17.3,7.8-17.3,17.3s7.8,17.3,17.3,17.3h15.9v4H48.6c-11.7,0-21.3-9.6-21.3-21.3
				c0-11.7,9.6-21.3,21.3-21.3H50c2.3-10.6,11.8-18.4,22.8-18.4c2.4,0,4.8,0.4,7.1,1.1C84.1,50.1,97.4,40,112.3,40
				c12.7,0,24.3,7.2,30,18.4c1.2-0.2,2.4-0.3,3.5-0.3c11.4,0,20.6,9.2,20.6,20.6c0,2.5-0.4,4.9-1.3,7.2c5.3,4,8.4,10.2,8.4,16.9
				C173.5,114.6,164,124.1,152.2,124.1z"/>
		</g>
		<g>
			<path class="st0" d="M114.9,140.2l-3.6-1.7l10.2-22.2h-17.7c-0.7,0-1.3-0.3-1.7-0.9s-0.4-1.3-0.2-1.9l12.7-29.3l3.7,1.6
				l-11.5,26.5h17.8c0.7,0,1.3,0.3,1.7,0.9c0.4,0.6,0.4,1.3,0.1,1.9L114.9,140.2z"/>
		</g>
		<g>
			<path class="st0" d="M80.5,142.3l-3.6-1.7l9-19.6h-8.5c-0.7,0-1.3-0.3-1.7-0.9s-0.4-1.3-0.2-1.9l7.1-16.3l3.7,1.6l-5.8,13.5H89
				c0.7,0,1.3,0.3,1.7,0.9c0.4,0.6,0.4,1.3,0.1,1.9L80.5,142.3z"/>
		</g>
	</g>
	<g>
		<g>
			
				<rect x="23.4" y="148.3" transform="matrix(0.3977 -0.9175 0.9175 0.3977 -118.7895 119.6942)" class="st0" width="16.7" height="4"/>
		</g>
		<g>
			
				<rect x="56.5" y="148.3" transform="matrix(0.3977 -0.9175 0.9175 0.3977 -98.9048 149.9863)" class="st0" width="16.7" height="4"/>
		</g>
		<g>
			
				<rect x="89.5" y="148.3" transform="matrix(0.3977 -0.9175 0.9175 0.3977 -79.0194 180.2793)" class="st0" width="16.7" height="4"/>
		</g>
	</g>
	<g>
		<g>
			
				<rect x="122.5" y="148.3" transform="matrix(0.3977 -0.9175 0.9175 0.3977 -59.1347 210.5715)" class="st0" width="16.7" height="4"/>
		</g>
		<g>
			
				<rect x="155.5" y="148.3" transform="matrix(0.3975 -0.9176 0.9176 0.3975 -39.2293 240.9095)" class="st0" width="16.7" height="4"/>
		</g>
	</g>
</g>
</svg>
