<?xml version="1.0" encoding="utf-8"?>
<!-- Generator: Adobe Illustrator 25.0.1, SVG Export Plug-In . SVG Version: 6.00 Build 0)  -->
<svg version="1.1" id="Capa_1" xmlns="http://www.w3.org/2000/svg" xmlns:xlink="http://www.w3.org/1999/xlink" x="0px" y="0px"
	 viewBox="0 0 200 200" style="enable-background:new 0 0 200 200;" xml:space="preserve">
<style type="text/css">
	.st0{fill:#FFFFFF;}
</style>
<g>
	<g>
		<g>
			<path class="st0" d="M96,81.8c-3.1-10.3-2.5-21,1.5-31c1.6-3.9,3.7-7.5,6.2-10.8l3.2,2.4c-2.3,3-4.2,6.3-5.7,9.9
				c-3.7,9.1-4.2,18.9-1.4,28.3L96,81.8z"/>
		</g>
		<g>
			<path class="st0" d="M113.9,35.3l-2.5-3.1c2.1-1.7,4.4-3.3,6.8-4.6l1.9,3.5C117.9,32.3,115.8,33.8,113.9,35.3z"/>
		</g>
	</g>
	<g>
		<g>
			<path class="st0" d="M87.5,86.2c-7.8-7.4-12.7-16.9-14.1-27.6c-0.6-4.2-0.6-8.4,0-12.5l4,0.5c-0.5,3.8-0.5,7.6,0,11.4
				c1.3,9.7,5.8,18.5,12.9,25.2L87.5,86.2z"/>
		</g>
		<g>
			<path class="st0" d="M79.7,37.1l-3.7-1.4c1-2.6,2.2-5.1,3.6-7.4l3.4,2.1C81.7,32.4,80.6,34.7,79.7,37.1z"/>
		</g>
	</g>
	<g>
		<g>
			<path class="st0" d="M82.2,94.3c-10.5-2.5-19.5-8.3-26-16.8c-2.6-3.3-4.7-6.9-6.3-10.8l3.7-1.5c1.5,3.5,3.4,6.8,5.7,9.9
				c6,7.8,14.3,13.1,23.8,15.4L82.2,94.3z"/>
		</g>
		<g>
			<path class="st0" d="M47,56.3c-0.4-2.7-0.6-5.5-0.6-8.2l4,0.1c0,2.5,0.1,5,0.5,7.5L47,56.3z"/>
		</g>
	</g>
	<g>
		<g>
			<path class="st0" d="M68.5,105.9c-6,0-11.9-1.2-17.6-3.5c-3.9-1.6-7.5-3.7-10.8-6.2l2.4-3.2c3,2.3,6.3,4.2,9.9,5.7
				c9.1,3.7,18.9,4.2,28.3,1.4l1.1,3.8C77.4,105.3,72.9,105.9,68.5,105.9z"/>
		</g>
		<g>
			<path class="st0" d="M32.2,88.7c-1.7-2.1-3.3-4.4-4.6-6.8l3.5-1.9c1.2,2.2,2.6,4.3,4.2,6.2L32.2,88.7z"/>
		</g>
	</g>
	<g>
		<g>
			<path class="st0" d="M52.2,127.1c-2,0-4.1-0.1-6.1-0.4l0.5-4c3.8,0.5,7.6,0.5,11.4,0c9.7-1.3,18.5-5.8,25.2-12.9l2.9,2.8
				c-7.4,7.8-16.9,12.7-27.6,14.1C56.5,127,54.4,127.1,52.2,127.1z"/>
		</g>
		<g>
			<path class="st0" d="M35.6,124.1c-2.6-1-5.1-2.2-7.4-3.6l2.1-3.4c2.2,1.3,4.4,2.4,6.8,3.3L35.6,124.1z"/>
		</g>
	</g>
	<g>
		<g>
			<path class="st0" d="M66.7,150.1l-1.5-3.7c3.5-1.5,6.8-3.4,9.9-5.7c7.8-6,13.1-14.3,15.4-23.8l3.9,0.9
				c-2.5,10.5-8.3,19.5-16.8,26C74.2,146.4,70.6,148.5,66.7,150.1z"/>
		</g>
		<g>
			<path class="st0" d="M48.8,153.6c-0.3,0-0.5,0-0.8,0l0.1-4c2.5,0,5-0.1,7.5-0.5l0.6,3.9C53.8,153.4,51.3,153.6,48.8,153.6z"/>
		</g>
	</g>
	<g>
		<g>
			<path class="st0" d="M96.2,160l-3.2-2.4c2.3-3,4.2-6.3,5.7-9.9c3.7-9.1,4.2-18.9,1.4-28.3l3.8-1.1c3.1,10.3,2.5,21-1.5,31
				C100.8,153.1,98.7,156.7,96.2,160z"/>
		</g>
		<g>
			<path class="st0" d="M81.8,172.4l-1.9-3.5c2.2-1.2,4.3-2.6,6.2-4.2l2.5,3.1C86.5,169.5,84.2,171,81.8,172.4z"/>
		</g>
	</g>
	<g>
		<g>
			<path class="st0" d="M126.7,153.9l-4-0.5c0.5-3.8,0.5-7.6,0-11.4c-1.3-9.7-5.8-18.5-12.9-25.2l2.8-2.9
				c7.8,7.4,12.7,16.9,14.1,27.6C127.3,145.5,127.3,149.7,126.7,153.9z"/>
		</g>
		<g>
			<path class="st0" d="M120.5,171.8l-3.4-2.1c1.3-2.2,2.4-4.4,3.3-6.8l3.7,1.4C123.1,166.9,121.9,169.4,120.5,171.8z"/>
		</g>
	</g>
	<g>
		<g>
			<path class="st0" d="M146.4,134.8c-1.5-3.5-3.4-6.8-5.7-9.9c-6-7.8-14.3-13.1-23.8-15.4l0.9-3.9c10.5,2.5,19.5,8.3,26,16.8
				c2.6,3.3,4.7,6.9,6.3,10.8L146.4,134.8z"/>
		</g>
		<g>
			<path class="st0" d="M153.6,151.9l-4-0.1c0-2.5-0.1-5-0.5-7.5l3.9-0.6C153.5,146.4,153.6,149.2,153.6,151.9z"/>
		</g>
	</g>
	<g>
		<g>
			<path class="st0" d="M157.6,107c-3-2.3-6.3-4.2-9.9-5.7c-9.1-3.7-18.9-4.2-28.3-1.4l-1.1-3.8c10.3-3.1,21-2.5,31,1.5
				c3.9,1.6,7.5,3.7,10.8,6.2L157.6,107z"/>
		</g>
		<g>
			<path class="st0" d="M168.9,120.1c-1.2-2.2-2.6-4.3-4.2-6.2l3.1-2.5c1.7,2.1,3.3,4.4,4.6,6.8L168.9,120.1z"/>
		</g>
	</g>
	<g>
		<g>
			<path class="st0" d="M116.7,90.2l-2.9-2.8c7.4-7.8,16.9-12.7,27.6-14.1c4.2-0.6,8.4-0.6,12.5,0l-0.5,4c-3.8-0.5-7.6-0.5-11.4,0
				C132.2,78.6,123.5,83.1,116.7,90.2z"/>
		</g>
		<g>
			<path class="st0" d="M169.7,83c-2.2-1.3-4.4-2.4-6.8-3.3l1.4-3.7c2.6,1,5.1,2.2,7.4,3.6L169.7,83z"/>
		</g>
	</g>
	<g>
		<g>
			<path class="st0" d="M109.6,83.2l-3.9-0.9c2.5-10.5,8.3-19.5,16.8-26c3.3-2.6,6.9-4.7,10.8-6.3l1.5,3.7c-3.5,1.5-6.8,3.4-9.9,5.7
				C117.2,65.4,111.9,73.6,109.6,83.2z"/>
		</g>
		<g>
			<path class="st0" d="M144.3,50.9l-0.6-3.9c2.7-0.4,5.5-0.6,8.2-0.6l-0.1,4C149.3,50.4,146.8,50.5,144.3,50.9z"/>
		</g>
	</g>
</g>
</svg>
